<svg xmlns="http://www.w3.org/2000/svg" version="1.1" xmlns:xlink="http://www.w3.org/1999/xlink" xmlns:svgjs="http://svgjs.dev/svgjs" width="1500" height="782" viewBox="0 0 1500 782"><g transform="matrix(1,0,0,1,-3.8355828220858257,-3.20832763622559)"><svg viewBox="0 0 163 85" data-background-color="#444444" preserveAspectRatio="xMidYMid meet" height="782" width="1500" xmlns="http://www.w3.org/2000/svg" xmlns:xlink="http://www.w3.org/1999/xlink"><g id="tight-bounds" transform="matrix(1,0,0,1,0.41679999999999495,0.3487312648071281)"><svg viewBox="0 0 162.1664 84.30253747038576" height="84.30253747038576" width="162.1664"><g><svg viewBox="0 0 162.1664 84.30253747038576" height="84.30253747038576" width="162.1664"><g><svg viewBox="0 0 162.1664 84.30253747038576" height="84.30253747038576" width="162.1664"><g id="textblocktransform"><svg viewBox="0 0 162.1664 84.30253747038576" height="84.30253747038576" width="162.1664" id="textblock"><g><svg viewBox="0 0 162.1664 59.461499999999994" height="59.461499999999994" width="162.1664"><g><svg><g></g><g></g></svg></g><g><svg><g><svg></svg></g><g></g></svg></g><g id="text-0"><svg viewBox="0 0 162.1664 59.461499999999994" height="59.461499999999994" width="162.1664"><g transform="matrix(1,0,0,1,0,0)"><svg width="88.6664" viewBox="3 -36 54.8 36.75" height="59.461499999999994" data-palette-color="#ffffff"><path d="M21-9.35L16.45-9.35 16.45-25.9 21-25.9 21-9.35ZM11.15 0L6.2 0 6.2-3.95 11.15-3.95 11.15 0ZM11.15-31.3L6.2-31.3 6.2-35.25 11.15-35.25 11.15-31.3ZM11.15-31.3L6.2-31.3 6.2-35.25 11.15-35.25 11.15-31.3ZM21-25.9L21-25.9 16.45-25.9Q16.45-28.5 15.05-29.9 13.65-31.3 11.15-31.3L11.15-31.3 11.15-35.25Q14.05-35.25 16.28-34.08 18.5-32.9 19.75-30.78 21-28.65 21-25.9ZM16.45-9.4L21-9.4Q21-6.6 19.75-4.5 18.5-2.4 16.28-1.2 14.05 0 11.15 0L11.15 0 11.15-3.95Q13.65-3.95 15.05-5.38 16.45-6.8 16.45-9.4L16.45-9.4ZM7.55 0L3 0 3-35.25 7.55-35.25 7.55 0ZM31.8 0L27.25 0 27.25-35.25 31.8-35.25 31.8 0ZM57.8-8.6L53.25-8.6 53.25-26.7 57.8-26.7 57.8-8.6ZM42.59-8.6L38.05-8.6 38.05-26.7 42.59-26.7 42.59-8.6ZM57.8-26.65L57.8-26.65 53.25-26.65Q53.25-29.25 51.82-30.65 50.4-32.05 47.9-32.05L47.9-32.05 47.9-36Q50.84-36 53.07-34.83 55.3-33.65 56.55-31.53 57.8-29.4 57.8-26.65ZM42.59-26.65L38.05-26.65Q38.05-29.4 39.3-31.53 40.55-33.65 42.8-34.83 45.05-36 47.95-36L47.95-36 47.95-32.05Q45.45-32.05 44.02-30.65 42.59-29.25 42.59-26.65L42.59-26.65ZM53.25-8.65L57.8-8.65Q57.8-5.85 56.55-3.75 55.3-1.65 53.07-0.45 50.84 0.75 47.9 0.75L47.9 0.75 47.9-3.2Q50.4-3.2 51.82-4.63 53.25-6.05 53.25-8.65L53.25-8.65ZM38.05-8.65L38.05-8.65 42.59-8.65Q42.59-6.05 44.02-4.63 45.45-3.2 47.95-3.2L47.95-3.2 47.95 0.75Q45.05 0.75 42.8-0.45 40.55-1.65 39.3-3.75 38.05-5.85 38.05-8.65Z" opacity="1" transform="matrix(1,0,0,1,0,0)" fill="#ffffff" class="wordmark-text-0" data-fill-palette-color="primary"></path></svg></g><g><svg xmlns="http://www.w3.org/2000/svg" xmlns:xlink="http://www.w3.org/1999/xlink" version="1.1" x="102.7049" y="0" viewBox="29.1 29.1 41.800000000000004 41.800000000000004" enable-background="new 0 0 100 100" xml:space="preserve" height="59.461499999999994" width="59.461499999999994" class="icon-dxe-0" data-fill-palette-color="accent" id="dxe-0"><g fill="#00d1cd" data-fill-palette-color="accent"><path d="M42.494 59.305L58.608 50 42.494 40.698zM44.693 44.508L54.208 50 44.693 55.495z" fill="#00d1cd" data-fill-palette-color="accent"></path><path d="M66.313 29.1H29.1V70.9H70.9V29.1zM68.701 68.7H31.299V31.3H68.701z" fill="#00d1cd" data-fill-palette-color="accent"></path><rect x="33.685" y="32.7" width="2.233" height="2.2" fill="#00d1cd" data-fill-palette-color="accent"></rect><rect x="33.685" y="36.3" width="2.233" height="2.2" fill="#00d1cd" data-fill-palette-color="accent"></rect><rect x="33.685" y="39.9" width="2.233" height="2.2" fill="#00d1cd" data-fill-palette-color="accent"></rect><rect x="33.685" y="43.5" width="2.233" height="2.2" fill="#00d1cd" data-fill-palette-color="accent"></rect><rect x="33.685" y="47.1" width="2.233" height="2.2" fill="#00d1cd" data-fill-palette-color="accent"></rect><rect x="33.685" y="50.7" width="2.233" height="2.2" fill="#00d1cd" data-fill-palette-color="accent"></rect><rect x="33.685" y="54.299" width="2.233" height="2.2" fill="#00d1cd" data-fill-palette-color="accent"></rect><rect x="33.685" y="57.9" width="2.233" height="2.2" fill="#00d1cd" data-fill-palette-color="accent"></rect><rect x="33.685" y="61.5" width="2.233" height="2.2" fill="#00d1cd" data-fill-palette-color="accent"></rect><rect x="33.685" y="65.099" width="2.233" height="2.2" fill="#00d1cd" data-fill-palette-color="accent"></rect><rect x="64.081" y="32.7" width="2.231" height="2.2" fill="#00d1cd" data-fill-palette-color="accent"></rect><rect x="64.081" y="36.3" width="2.231" height="2.2" fill="#00d1cd" data-fill-palette-color="accent"></rect><rect x="64.081" y="39.9" width="2.231" height="2.2" fill="#00d1cd" data-fill-palette-color="accent"></rect><rect x="64.081" y="43.5" width="2.231" height="2.2" fill="#00d1cd" data-fill-palette-color="accent"></rect><rect x="64.081" y="47.1" width="2.231" height="2.2" fill="#00d1cd" data-fill-palette-color="accent"></rect><rect x="64.081" y="50.7" width="2.231" height="2.2" fill="#00d1cd" data-fill-palette-color="accent"></rect><rect x="64.081" y="54.299" width="2.231" height="2.2" fill="#00d1cd" data-fill-palette-color="accent"></rect><rect x="64.081" y="57.9" width="2.231" height="2.2" fill="#00d1cd" data-fill-palette-color="accent"></rect><rect x="64.081" y="61.5" width="2.231" height="2.2" fill="#00d1cd" data-fill-palette-color="accent"></rect><rect x="64.081" y="65.099" width="2.231" height="2.2" fill="#00d1cd" data-fill-palette-color="accent"></rect></g></svg></g></svg></g></svg></g><g transform="matrix(1,0,0,1,30.973782400000005,73.49893307399999)"><svg viewBox="0 0 100.2188352 10.803604396385763" height="10.803604396385763" width="100.2188352"><g transform="matrix(1,0,0,1,0,0)"><svg width="100.2188352" viewBox="2.3416666666699997 -34.806578371482004 424.41833333333 45.75657837148201" height="10.803604396385763" data-palette-color="#00d1cd"><path d="M14.35 0.4L10.35 0.4Q9.55 0.4 9.2-0.73 8.85-1.85 8.85-3.2L8.85-3.2Q8.85-4.55 9.03-6.23 9.2-7.9 9.55-10.8L9.55-10.8 11.7-29.8 5-28.35Q4.4-28.25 3.98-28.18 3.55-28.1 3.35-28.1L3.35-28.1Q2.8-28.1 2.55-28.45 2.3-28.8 2.35-29.3L2.35-29.3Q2.4-30.55 2.73-31.6 3.05-32.65 3.55-33.33 4.05-34 4.65-34L4.65-34 15.4-34Q19.25-34 21.43-34.15 23.6-34.3 24.68-34.43 25.75-34.55 26.3-34.55L26.3-34.55Q26.8-34.55 27-34.35 27.2-34.15 27.25-33.55L27.25-33.55Q27.3-32.55 26.98-31.45 26.65-30.35 26.13-29.58 25.6-28.8 25.05-28.8L25.05-28.8Q24.7-28.8 24-28.93 23.3-29.05 22.4-29.15L22.4-29.15 17.65-29.8 14.35 0.4ZM47.05 0.5L43.4 0.5Q43 0.5 42.72-0.03 42.45-0.55 42.35-1.2 42.25-1.85 42.25-2.25L42.25-2.25Q42.25-2.95 42.35-4.05 42.45-5.15 42.6-6.38 42.75-7.6 42.9-8.5L42.9-8.5 43.75-13.7Q43.9-14.7 44.05-15.58 44.2-16.45 44.2-17.45L44.2-17.45Q44.2-18.2 43.9-18.6 43.6-19 43.1-19L43.1-19Q42.45-19 40.97-17.78 39.5-16.55 37.82-14.25 36.15-11.95 34.77-8.68 33.4-5.4 33-1.25L33-1.25 31.75-8.75Q33.8-14.55 36.35-18 38.9-21.45 41.4-22.98 43.9-24.5 45.8-24.5L45.8-24.5Q48-24.5 49-23.23 50-21.95 50-19.95L50-19.95Q50-18.85 49.82-17.65 49.65-16.45 49.45-15.15L49.45-15.15 47.05 0.5ZM28.55 0.7L28.55 0.7Q27.9 0.7 27.57 0.43 27.25 0.15 27.25-0.8 27.25-1.75 27.45-3.75L27.45-3.75 29.6-23.45Q29.9-26.3 30.35-29.13 30.8-31.95 30.95-34.8L30.95-34.8 34.45-34.8Q35.45-34.8 35.92-33.45 36.4-32.1 36.4-30.7L36.4-30.7Q36.4-29.6 36.3-28.73 36.2-27.85 36-26.9 35.8-25.95 35.45-24.5L35.45-24.5 32.25-9.85 33.9-11.9Q33.55-8.7 33.35-5.85 33.15-3 33-1.25L33-1.25Q33-0.75 32.12-0.3 31.25 0.15 30.2 0.43 29.15 0.7 28.55 0.7ZM61.09 0.8L61.09 0.8Q57.25 0.8 55.15-1.63 53.05-4.05 53.05-8.3L53.05-8.3Q53.05-11.85 54.05-14.8 55.05-17.75 56.84-19.95 58.65-22.15 61.07-23.35 63.5-24.55 66.34-24.55L66.34-24.55Q69.75-24.55 71.55-23.1 73.34-21.65 73.34-18.95L73.34-18.95Q73.34-16.2 71.52-14.15 69.7-12.1 66.27-10.65 62.84-9.2 58.09-8.2L58.09-8.2 57.45-11.2Q60.2-11.55 62.5-12.4 64.8-13.25 66.2-14.68 67.59-16.1 67.59-18.05L67.59-18.05Q67.59-19.4 67.07-20.1 66.55-20.8 65.2-20.8L65.2-20.8Q63.15-20.8 61.72-19.3 60.3-17.8 59.57-15.4 58.84-13 58.84-10.3L58.84-10.3Q58.84-6.65 59.97-5.43 61.09-4.2 63.3-4.2L63.3-4.2Q65.59-4.2 67.32-4.93 69.05-5.65 70.3-6.45L70.3-6.45Q70.7-6.7 71-6.85 71.3-7 71.5-7L71.5-7Q71.75-7 71.9-6.8 72.05-6.6 72.05-6.35L72.05-6.35Q72.05-5.45 71.25-4.25 70.45-3.05 68.97-1.9 67.5-0.75 65.5 0.03 63.5 0.8 61.09 0.8ZM111.29 0.7L111.29 0.7Q110.89 0.7 110.52 0.45 110.14 0.2 109.99-0.75L109.99-0.75 107.59-20.9 106.94-24.55Q106.54-27 106.19-28.2 105.84-29.4 105.44-30.15L105.44-30.15Q105.04-30.9 104.82-31.38 104.59-31.85 104.59-32.3L104.59-32.3Q104.59-32.8 105.12-33.23 105.64-33.65 106.42-33.95 107.19-34.25 108.02-34.43 108.84-34.6 109.44-34.6L109.44-34.6Q110.74-34.6 111.59-32.5 112.44-30.4 112.99-25.5L112.99-25.5 115.39-4.65 113.69-4.05 121.54-24.55Q122.14-26.05 122.29-27 122.44-27.95 122.44-28.75 122.44-29.55 122.54-30.55L122.54-30.55Q122.64-31.5 123.47-32.25 124.29-33 125.37-33.55 126.44-34.1 127.42-34.4 128.39-34.7 128.84-34.7L128.84-34.7Q130.19-34.7 130.19-33.85L130.19-33.85Q130.19-33.6 130.09-33.27 129.99-32.95 129.79-32.55L129.79-32.55 117.19-2.6Q116.89-1.9 116.14-1.13 115.39-0.35 114.19 0.18 112.99 0.7 111.29 0.7ZM95.09 0.7L95.09 0.7Q94.69 0.7 94.32 0.45 93.94 0.2 93.79-0.75L93.79-0.75 91.29-22.2Q90.99-24.9 90.72-26.33 90.44-27.75 90.14-28.48 89.84-29.2 89.54-29.75L89.54-29.75Q89.14-30.55 88.82-31.03 88.49-31.5 88.49-31.95L88.49-31.95Q88.49-32.45 89.04-32.93 89.59-33.4 90.44-33.77 91.29-34.15 92.19-34.38 93.09-34.6 93.74-34.6L93.74-34.6Q94.49-34.6 95.17-33.77 95.84-32.95 96.39-30.98 96.94-29 97.24-25.5L97.24-25.5 99.24-4.65 97.29-4.05 108.04-27.9 108.59-20.15 101.09-2.35Q100.64-1.25 99.12-0.28 97.59 0.7 95.09 0.7ZM135.99 0.75L135.99 0.75Q131.69 0.75 129.31-1.78 126.94-4.3 126.94-9.2L126.94-9.2Q126.94-12.45 128.01-15.23 129.09-18 130.94-20.1 132.79-22.2 135.21-23.38 137.64-24.55 140.34-24.55L140.34-24.55Q144.64-24.55 146.91-22 149.19-19.45 149.19-14.3L149.19-14.3Q149.19-11.2 148.16-8.47 147.14-5.75 145.34-3.68 143.54-1.6 141.14-0.43 138.74 0.75 135.99 0.75ZM137.19-3L137.19-3Q139.09-3 140.46-4.4 141.84-5.8 142.56-8.25 143.29-10.7 143.29-13.75L143.29-13.75Q143.29-17 142.31-18.9 141.34-20.8 139.09-20.8L139.09-20.8Q137.24-20.8 135.81-19.4 134.39-18 133.61-15.58 132.84-13.15 132.84-10.05L132.84-10.05Q132.84-6.6 133.94-4.8 135.04-3 137.19-3ZM157.64-1.2L157.64-1.2 156.44-8.75Q158.29-13.55 160.21-17.07 162.14-20.6 164.14-22.55 166.14-24.5 168.19-24.5L168.19-24.5Q169.34-24.5 169.84-23.78 170.34-23.05 170.34-21.95L170.34-21.95Q170.34-20.95 170.11-20.03 169.89-19.1 169.46-18.5 169.04-17.9 168.44-17.9L168.44-17.9Q167.89-17.9 167.21-18.25 166.54-18.6 165.39-18.6L165.39-18.6Q164.64-18.6 163.49-17.05 162.34-15.5 161.11-12.93 159.89-10.35 158.94-7.28 157.99-4.2 157.64-1.2ZM153.44 0.7L153.44 0.7Q152.79 0.7 152.46 0.48 152.14 0.25 152.11-0.7 152.09-1.65 152.34-3.75L152.34-3.75 154.69-24.55 158.19-24.55Q158.94-24.55 159.54-23.45 160.14-22.35 160.14-20.95L160.14-20.95Q160.14-20.3 159.76-18.93 159.39-17.55 158.89-16.03 158.39-14.5 157.99-13.35L157.99-13.35 156.69-9.25 158.54-9.55 157.64-1.2Q157.59-0.7 157.04-0.33 156.49 0.05 155.76 0.28 155.04 0.5 154.39 0.6 153.74 0.7 153.44 0.7ZM177.13 0.7L173.63 0.7Q172.73 0.7 172.23-0.4 171.73-1.5 171.78-2.95L171.78-2.95Q171.83-4.65 172.08-7 172.33-9.35 172.58-11.65L172.58-11.65 173.98-23.45Q174.28-25.7 174.13-27.45 173.98-29.2 173.73-30.55 173.48-31.9 173.48-32.85L173.48-32.85Q173.48-33.4 174.36-33.83 175.23-34.25 176.38-34.52 177.53-34.8 178.33-34.8L178.33-34.8Q179.18-34.8 179.83-33.58 180.48-32.35 180.48-30.75L180.48-30.75Q180.48-30.4 180.38-28.8 180.28-27.2 179.98-25.15L179.98-25.15 178.38-13.65Q177.88-10.05 177.68-6.48 177.48-2.9 177.13 0.7L177.13 0.7ZM188.08 0.8L188.08 0.8Q185.38 0.8 184.21-1.4 183.03-3.6 183.03-7.85L183.03-7.85Q183.03-11.5 184.06-14.55 185.08-17.6 186.93-19.83 188.78-22.05 191.23-23.28 193.68-24.5 196.53-24.5L196.53-24.5Q198.28-24.5 200.01-23.93 201.73-23.35 202.98-22.75L202.98-22.75 201.38-17.85Q200.03-18.75 198.56-19.4 197.08-20.05 195.86-20.4 194.63-20.75 193.98-20.75L193.98-20.75Q192.53-20.75 191.33-19.38 190.13-18 189.41-15.58 188.68-13.15 188.68-10L188.68-10Q188.68-7.1 189.11-5.6 189.53-4.1 190.48-4.1L190.48-4.1Q191.28-4.1 192.96-5.58 194.63-7.05 196.86-10.5 199.08-13.95 201.53-19.85L201.53-19.85 202.98-15.4Q200.33-9.4 197.73-5.85 195.13-2.3 192.71-0.75 190.28 0.8 188.08 0.8ZM204.78 0.5L201.28 0.5Q200.73 0.5 200.33-0.13 199.93-0.75 199.73-1.65 199.53-2.55 199.53-3.3L199.53-3.3Q199.53-4.55 199.96-6.15 200.38-7.75 201.03-10.2L201.03-10.2 202.03-13.95 200.58-15.55 201.13-20.8 201.83-21.65 202.23-34.8 206.13-34.8Q206.88-34.8 207.36-34.15 207.83-33.5 208.06-32.63 208.28-31.75 208.28-30.95L208.28-30.95Q208.28-30.45 208.23-29.83 208.18-29.2 208.03-28.13 207.88-27.05 207.58-25.15L207.58-25.15 205.93-13.65Q205.58-11.25 205.33-8.75 205.08-6.25 204.96-3.9 204.83-1.55 204.78 0.5L204.78 0.5ZM238.08 0.8L238.08 0.8Q233.78 0.8 230.55-0.88 227.33-2.55 225.55-5.9 223.78-9.25 223.78-14.15L223.78-14.15Q223.78-18.65 225.18-22.43 226.58-26.2 229.1-28.98 231.63-31.75 234.98-33.27 238.33-34.8 242.28-34.8L242.28-34.8Q249.03-34.8 252.8-31.03 256.58-27.25 256.58-19.9L256.58-19.9Q256.58-15.4 255.18-11.63 253.78-7.85 251.25-5.05 248.73-2.25 245.38-0.73 242.03 0.8 238.08 0.8ZM238.73-3.2L238.73-3.2Q240.83-3.2 242.83-4.33 244.83-5.45 246.43-7.55 248.03-9.65 248.98-12.53 249.93-15.4 249.93-18.9L249.93-18.9Q249.93-23 248.8-25.63 247.68-28.25 245.8-29.53 243.93-30.8 241.63-30.8L241.63-30.8Q238.58-30.8 236.03-28.83 233.48-26.85 231.95-23.3 230.43-19.75 230.43-15.1L230.43-15.1Q230.43-11.05 231.55-8.4 232.68-5.75 234.58-4.48 236.48-3.2 238.73-3.2ZM259.92 10.95L259.92 10.95Q259.27 10.95 258.97 10.53 258.67 10.1 258.67 9.4L258.67 9.4Q258.67 8.35 258.82 7.1L258.82 7.1 262.52-23.55Q263.22-29.35 266.15-32.08 269.07-34.8 274.07-34.8L274.07-34.8Q276.37-34.8 277.35-34.08 278.32-33.35 278.32-31.9L278.32-31.9Q278.32-31.05 278.12-30.3 277.92-29.55 277.57-29.08 277.22-28.6 276.72-28.6L276.72-28.6Q276.32-28.6 275.52-29.23 274.72-29.85 273.67-30.45 272.62-31.05 271.37-31.05L271.37-31.05Q269.72-31.05 269.1-29.38 268.47-27.7 268.17-24.95L268.17-24.95 266.52-10.4Q266.17-7.45 265.92-4.42 265.67-1.4 265.42 1.2L265.42 1.2Q265.27 2.45 264.65 4.1 264.02 5.75 263.12 7.33 262.22 8.9 261.37 9.93 260.52 10.95 259.92 10.95ZM271.47-20.25L259.67-20.25Q259.32-20.25 259.17-20.5 259.02-20.75 259.12-21.1L259.12-21.1 259.47-22.05Q259.82-23.05 260.22-23.4 260.62-23.75 262.17-23.75L262.17-23.75 274.17-23.75Q274.82-23.75 274.57-22.95L274.57-22.95Q274.07-21.55 273.52-20.9 272.97-20.25 271.47-20.25L271.47-20.25ZM289.82 0.6L289.82 0.6Q289.02 0.6 288.77-0.15 288.52-0.9 288.52-1.95L288.52-1.95Q288.52-3.7 288.72-5.68 288.92-7.65 289.12-9.55L289.12-9.55 291.87-34.75 296.02-34.8Q298.07-34.85 298.84-34.52 299.62-34.2 299.87-33.2L299.87-33.2 307.27-6.15 304.67-6.25 316.22-31.4Q316.87-32.8 318.62-33.77 320.37-34.75 322.87-34.75L322.87-34.75Q323.87-34.75 324.39-34.27 324.92-33.8 324.77-32.45L324.77-32.45 321.37 0.4 317.37 0.4Q316.72 0.4 316.37-0.4 316.02-1.2 316.02-2.65L316.02-2.65Q316.02-4.7 316.14-7.1 316.27-9.5 316.52-11.7L316.52-11.7 318.37-27.5 318.67-27.3 312.12-13.2Q310.12-8.9 308.87-6.38 307.62-3.85 306.84-2.6 306.07-1.35 305.52-0.98 304.97-0.6 304.37-0.6L304.37-0.6Q303.72-0.6 303.29-0.88 302.87-1.15 302.62-2.05L302.62-2.05 295.17-27.55 295.62-27.6 294.22-14.65Q293.77-10.7 293.82-8.35 293.87-6 294.14-4.73 294.42-3.45 294.67-2.75 294.92-2.05 294.92-1.45L294.92-1.45Q294.92-0.9 294.32-0.53 293.72-0.15 292.82 0.1 291.92 0.35 291.09 0.48 290.27 0.6 289.82 0.6ZM336.17 0.75L336.17 0.75Q331.87 0.75 329.49-1.78 327.12-4.3 327.12-9.2L327.12-9.2Q327.12-12.45 328.19-15.23 329.27-18 331.12-20.1 332.97-22.2 335.39-23.38 337.82-24.55 340.52-24.55L340.52-24.55Q344.82-24.55 347.09-22 349.37-19.45 349.37-14.3L349.37-14.3Q349.37-11.2 348.34-8.47 347.32-5.75 345.52-3.68 343.72-1.6 341.32-0.43 338.92 0.75 336.17 0.75ZM337.37-3L337.37-3Q339.27-3 340.64-4.4 342.02-5.8 342.74-8.25 343.47-10.7 343.47-13.75L343.47-13.75Q343.47-17 342.49-18.9 341.52-20.8 339.27-20.8L339.27-20.8Q337.42-20.8 335.99-19.4 334.57-18 333.79-15.58 333.02-13.15 333.02-10.05L333.02-10.05Q333.02-6.6 334.12-4.8 335.22-3 337.37-3ZM359.36 0.8L359.36 0.8Q357.26 0.8 355.99-0.78 354.71-2.35 354.41-5.35L354.41-5.35 353.31-16.55Q353.21-17.7 352.99-18.88 352.76-20.05 352.41-20.75L352.41-20.75Q352.06-21.45 351.81-21.73 351.56-22 351.56-22.4L351.56-22.4Q351.56-22.8 352.14-23.18 352.71-23.55 353.56-23.88 354.41-24.2 355.26-24.38 356.11-24.55 356.66-24.55L356.66-24.55Q357.56-24.55 358.11-23.6 358.66-22.65 358.96-19.85L358.96-19.85 360.26-7.15Q360.41-5.7 360.79-4.95 361.16-4.2 361.86-4.2L361.86-4.2Q362.41-4.2 363.39-4.9 364.36-5.6 365.39-7.25 366.41-8.9 367.11-11.65 367.81-14.4 367.81-18.5L367.81-18.5Q367.81-19.7 367.49-20.35 367.16-21 367.16-21.5L367.16-21.5Q367.16-21.95 367.71-22.5 368.26-23.05 369.09-23.5 369.91-23.95 370.74-24.25 371.56-24.55 372.06-24.55L372.06-24.55Q372.66-24.55 373.26-24.2 373.86-23.85 373.86-22.45L373.86-22.45Q373.86-20.05 373.16-16.98 372.46-13.9 371.19-10.8 369.91-7.7 368.11-5.05 366.31-2.4 364.11-0.8 361.91 0.8 359.36 0.8ZM381.51 0.8L378.01 0.8Q377.16 0.8 376.91-0.18 376.66-1.15 376.66-2.2L376.66-2.2Q376.66-4 376.84-5.4 377.01-6.8 377.21-8.5L377.21-8.5 379.01-24.55 382.51-24.55Q383.51-24.55 383.81-23.45 384.11-22.35 384.11-20.95L384.11-20.95Q384.11-20.25 384.01-19.48 383.91-18.7 383.71-17.1L383.71-17.1 382.76-8.95Q382.46-6.35 382.21-4.6 381.96-2.85 381.81-1.6 381.66-0.35 381.51 0.8L381.51 0.8ZM382.41-27.4L382.41-27.4Q381.01-27.4 379.99-28.35 378.96-29.3 378.96-30.85L378.96-30.85Q378.96-32.7 380.16-33.73 381.36-34.75 382.91-34.75L382.91-34.75Q384.36-34.75 385.34-33.9 386.31-33.05 386.31-31.35L386.31-31.35Q386.31-29.65 385.16-28.53 384.01-27.4 382.41-27.4ZM395.26 0.8L395.26 0.8Q391.41 0.8 389.31-1.63 387.21-4.05 387.21-8.3L387.21-8.3Q387.21-11.85 388.21-14.8 389.21-17.75 391.01-19.95 392.81-22.15 395.23-23.35 397.66-24.55 400.51-24.55L400.51-24.55Q403.91-24.55 405.71-23.1 407.51-21.65 407.51-18.95L407.51-18.95Q407.51-16.2 405.68-14.15 403.86-12.1 400.43-10.65 397.01-9.2 392.26-8.2L392.26-8.2 391.61-11.2Q394.36-11.55 396.66-12.4 398.96-13.25 400.36-14.68 401.76-16.1 401.76-18.05L401.76-18.05Q401.76-19.4 401.23-20.1 400.71-20.8 399.36-20.8L399.36-20.8Q397.31-20.8 395.88-19.3 394.46-17.8 393.73-15.4 393.01-13 393.01-10.3L393.01-10.3Q393.01-6.65 394.13-5.43 395.26-4.2 397.46-4.2L397.46-4.2Q399.76-4.2 401.48-4.93 403.21-5.65 404.46-6.45L404.46-6.45Q404.86-6.7 405.16-6.85 405.46-7 405.66-7L405.66-7Q405.91-7 406.06-6.8 406.21-6.6 406.21-6.35L406.21-6.35Q406.21-5.45 405.41-4.25 404.61-3.05 403.13-1.9 401.66-0.75 399.66 0.03 397.66 0.8 395.26 0.8ZM416.61 0.8L416.61 0.8Q412.81 0.8 410.63-0.38 408.46-1.55 408.46-3.55L408.46-3.55Q408.46-4.45 408.73-5.23 409.01-6 409.56-6L409.56-6Q409.76-6 410.01-5.9 410.26-5.8 410.96-5.35L410.96-5.35Q411.96-4.7 413.18-4.15 414.41-3.6 415.68-3.28 416.96-2.95 418.06-2.95L418.06-2.95Q419.66-2.95 420.38-3.73 421.11-4.5 421.11-5.8L421.11-5.8Q421.11-6.75 420.53-7.38 419.96-8 418.71-8.8L418.71-8.8 415.61-10.8Q413.66-12.05 412.33-13.48 411.01-14.9 411.01-17.2L411.01-17.2Q411.01-20.45 413.51-22.48 416.01-24.5 420.56-24.5L420.56-24.5Q423.76-24.5 425.26-23.85 426.76-23.2 426.76-21.6L426.76-21.6Q426.76-20.35 426.38-19.5 426.01-18.65 425.36-18.65L425.36-18.65Q425.16-18.65 424.83-18.75 424.51-18.85 424.26-19L424.26-19Q423.86-19.25 423.01-19.7 422.16-20.15 421.11-20.53 420.06-20.9 418.91-20.9L418.91-20.9Q417.76-20.9 417.03-20.23 416.31-19.55 416.31-18.4L416.31-18.4Q416.31-17.45 416.91-16.8 417.51-16.15 418.91-15.45L418.91-15.45 422.16-13.95Q424.21-13 425.48-11.73 426.76-10.45 426.76-7.95L426.76-7.95Q426.76-5 425.33-3.05 423.91-1.1 421.58-0.15 419.26 0.8 416.61 0.8Z" opacity="1" transform="matrix(1,0,0,1,0,0)" fill="#00d1cd" class="slogan-text-1" data-fill-palette-color="secondary" id="text-1"></path></svg></g></svg></g></svg></g></svg></g></svg></g><defs></defs></svg><rect width="162.1664" height="84.30253747038576" fill="none" stroke="none" visibility="hidden"></rect></g></svg></g></svg>